<?xml version="1.0" encoding="UTF-8"?>
<svg version="1.1" xmlns="http://www.w3.org/2000/svg" width="473" height="527">
<path d="M0 0 C0.99 0 1.98 0 3 0 C3.14100883 1.2668438 3.14100883 1.2668438 3.28486633 2.5592804 C5.73726533 24.50532849 8.28458837 46.43955424 11.16447258 68.33407402 C11.74249138 72.7325356 12.30675333 77.13188489 12.84106445 81.53588867 C13.37314862 85.91828019 13.93906847 90.29513077 14.52785683 94.67025185 C14.74155289 96.29947299 14.94398861 97.93022246 15.13353539 99.56242943 C16.47855366 111.04941822 19.748128 119.56622537 25.95650673 129.32657814 C27.45280015 131.72614332 28.77828502 134.20896906 30.1015625 136.70703125 C33.39515987 142.77711529 36.88078826 148.73129148 40.375 154.6875 C41.01566406 155.78255859 41.65632812 156.87761719 42.31640625 158.00585938 C43.87616629 160.67141945 45.43738343 163.33611385 47 166 C49.13460064 162.79809904 50.1748096 159.94129461 51.42578125 156.3046875 C51.65379929 155.64405304 51.88181732 154.98341858 52.116745 154.30276489 C52.85357556 152.16182574 53.58340427 150.01858443 54.3125 147.875 C54.56088623 147.14958008 54.80927246 146.42416016 55.06518555 145.67675781 C58.2734056 136.30480347 61.36495531 126.927037 64 117.375 C65.1496962 113.49477531 66.54299416 109.77496967 68 106 C68.99 106 69.98 106 71 106 C71.33040283 107.24813477 71.33040283 107.24813477 71.66748047 108.52148438 C76.25279423 125.7688651 81.05448499 142.90421645 86.54833984 159.88671875 C88.57150827 166.19614841 90.42374522 172.49225232 91.98046875 178.9296875 C93.95574598 187.09661931 96.42892886 195.06631318 99 203.0625 C101.87658307 212.03278269 104.56456336 220.994917 106.94580078 230.11303711 C108.67656962 236.61021591 110.72275996 243.0160557 112.71939087 249.4352417 C119.5136868 271.33602563 119.5136868 271.33602563 122.3125 281.375 C122.52511475 282.09139648 122.73772949 282.80779297 122.95678711 283.54589844 C124.60232173 289.66846637 122.95242749 293.41347497 119.96875 298.70703125 C119.15155917 300.07894769 118.32832107 301.44727483 117.5 302.8125 C116.59614887 304.32409601 115.69250908 305.83581841 114.7890625 307.34765625 C114.32661133 308.1173877 113.86416016 308.88711914 113.38769531 309.68017578 C111.6150512 312.64352278 109.87188594 315.62359434 108.12939453 318.60473633 C104.10653728 325.48462085 100.00492695 332.30698954 95.7890625 339.0703125 C94.180603 341.70425273 92.64334233 344.36963931 91.12060547 347.05371094 C88.89114038 350.92588865 86.55968418 354.73784196 84.25 358.5625 C80.633142 364.56362162 77.06289802 370.58203198 73.625 376.6875 C71.57612616 380.31081582 69.49698641 383.83038626 67.125 387.25 C63.4934529 392.5122418 60.53450148 398.16672796 57.51416016 403.79394531 C57.10343262 404.55030273 56.69270508 405.30666016 56.26953125 406.0859375 C55.90448486 406.7670459 55.53943848 407.4481543 55.16333008 408.14990234 C53.88352548 410.18523481 52.90027341 411.51009339 51 413 C48.36140442 413.36076355 48.36140442 413.36076355 45.15161133 413.34057617 C43.9505928 413.34034958 42.74957428 413.34012299 41.51216125 413.33988953 C40.21521835 413.32440567 38.91827545 413.30892181 37.58203125 413.29296875 C36.24110895 413.28737234 34.90018051 413.28310245 33.55924988 413.28010559 C30.03275569 413.26866018 26.50663316 413.23919618 22.98028564 413.20599365 C19.38078845 413.17528589 15.7812311 413.16159878 12.18164062 413.14648438 C5.12094186 413.11432579 -1.93950479 413.06313345 -9 413 C-10.0791626 409.23001099 -10.0791626 409.23001099 -9.36669922 407.15991211 C-9.01623535 406.53866455 -8.66577148 405.91741699 -8.3046875 405.27734375 C-7.92111084 404.57988037 -7.53753418 403.88241699 -7.14233398 403.16381836 C-6.51500366 402.06179077 -6.51500366 402.06179077 -5.875 400.9375 C-5.02755438 399.39714775 -4.18249262 397.85548153 -3.33984375 396.3125 C-2.9310498 395.56742187 -2.52225586 394.82234375 -2.10107422 394.0546875 C-0.3218669 390.73455251 1.17915916 387.308609 2.6953125 383.86328125 C4.34869687 380.2347461 6.13957598 376.68360922 7.9375 373.125 C10.37972892 368.28649351 12.7535084 363.43371179 15 358.5 C18.99354082 349.74242543 23.35974189 341.1677861 27.73828125 332.59765625 C29.18803179 329.74492132 30.60533849 326.87999761 32 324 C32.36480469 323.27425781 32.72960937 322.54851562 33.10546875 321.80078125 C35.60495537 316.24515378 34.7054588 312.54497338 33 307 C32.47412568 305.12640758 31.95343325 303.25135424 31.4375 301.375 C31.18226563 300.45847656 30.92703125 299.54195313 30.6640625 298.59765625 C29.84647308 295.3994388 29.36421909 292.27797178 29 289 C28.34 289 27.68 289 27 289 C26.60361328 289.88945313 26.60361328 289.88945313 26.19921875 290.796875 C24.95629575 293.08029054 23.69598354 294.47426723 21.8125 296.25 C19.31539552 298.61260002 17.02759749 301.08865167 14.77734375 303.68359375 C10.88224379 308.16992812 6.83286643 312.49730628 2.75 316.8125 C2.04359375 317.56208984 1.3371875 318.31167969 0.609375 319.08398438 C-3.12638475 323.04261616 -3.12638475 323.04261616 -5 325 C-5.5269043 325.57194092 -6.05380859 326.14388184 -6.59667969 326.7331543 C-8 328 -8 328 -10 328 C-10.33 328.99 -10.66 329.98 -11 331 C-11.99 331 -12.98 331 -14 331 C-14.00546844 329.30443466 -14.00546844 329.30443466 -14.01104736 327.57461548 C-14.04807558 316.89363897 -14.10593373 306.21294868 -14.18390274 295.53219032 C-14.22332058 290.04179355 -14.25553705 284.55155581 -14.27099609 279.06103516 C-14.28620007 273.75698492 -14.32071222 268.45337203 -14.36830902 263.14951706 C-14.38308424 261.13149198 -14.39103879 259.11340446 -14.39188385 257.09532547 C-14.11326275 242.51362526 -14.11326275 242.51362526 -19 229 C-21.25458585 233.91650061 -23.50473006 238.83298271 -25.64453125 243.80078125 C-28.97579004 251.52998615 -32.49768176 259.07336777 -36.3203125 266.57421875 C-37.99260735 269.98492244 -39.48090604 273.42986426 -40.9375 276.9375 C-43.34160048 282.677772 -46.12093827 288.07934171 -49.10473633 293.52832031 C-51.67105127 298.26025244 -53.7931658 303.07372954 -55.765625 308.0859375 C-57.53199832 312.25592008 -59.73082316 316.17487735 -61.9609375 320.11328125 C-63.96204849 325.67275877 -62.11798435 330.00693791 -59.77734375 335.15234375 C-58.84074007 337.0856112 -57.89362442 339.01381199 -56.9375 340.9375 C-56.44233887 341.95295898 -55.94717773 342.96841797 -55.43701172 344.01464844 C-52.21755416 350.59919329 -48.94301095 357.15709587 -45.640625 363.70043945 C-43.39407207 368.16266685 -41.30759981 372.67818806 -39.26953125 377.23828125 C-36.06415995 384.21119667 -32.51595337 391.02644476 -29.03125 397.86328125 C-28.7120459 398.49322998 -28.3928418 399.12317871 -28.06396484 399.7722168 C-27.17342535 401.52944619 -26.27825093 403.28432441 -25.3828125 405.0390625 C-24.27365033 407.41404817 -23.37603783 409.41625617 -23 412 C-24.73973546 413.73973546 -27.13874745 413.20865851 -29.51025391 413.2722168 C-30.68882965 413.30441818 -31.8674054 413.33661957 -33.08169556 413.36979675 C-37.7837595 413.46567867 -42.48580349 413.5466908 -47.18853188 413.60025311 C-50.75775072 413.64117472 -54.324215 413.70137309 -57.89208984 413.80932617 C-62.00393595 413.9333197 -66.11299924 413.97500088 -70.2265625 414.01171875 C-71.49972321 414.06019455 -72.77288391 414.10867035 -74.08462524 414.15861511 C-82.76151016 414.14070048 -82.76151016 414.14070048 -86.29852295 410.88296509 C-88.11303694 408.32710981 -89.57504257 405.78869917 -91 403 C-92.03203907 401.30659483 -93.07243762 399.61822548 -94.125 397.9375 C-95.90378913 394.92149534 -97.62824214 391.88210306 -99.3125 388.8125 C-101.93437327 384.04085926 -104.74424285 379.38904132 -107.55737305 374.72875977 C-109.95254233 370.7576774 -112.30607318 366.76633947 -114.625 362.75 C-116.84799986 358.9149402 -119.15619948 355.16015747 -121.5625 351.4375 C-124.40210472 347.02664733 -126.92746155 342.5154463 -129.3984375 337.890625 C-131.82408999 333.51261807 -134.49219847 329.2911341 -137.13671875 325.04296875 C-138.62172596 322.6177683 -140.02647592 320.18917894 -141.375 317.6875 C-144.18701188 312.50798671 -147.36679715 307.55702089 -150.52294922 302.58276367 C-150.94205566 301.91994385 -151.36116211 301.25712402 -151.79296875 300.57421875 C-152.1696167 299.98213623 -152.54626465 299.39005371 -152.93432617 298.7800293 C-156.25396029 293.23513757 -156.78403784 288.76424008 -155.46484375 282.43066406 C-154.70138323 279.47590495 -153.86508937 276.55161322 -153 273.625 C-152.68893311 272.54299316 -152.37786621 271.46098633 -152.05737305 270.34619141 C-149.43466839 261.29470163 -146.67479423 252.28319403 -143.84179688 243.29541016 C-142.12777573 237.82732929 -140.54629688 232.35047325 -139.1015625 226.8046875 C-137.07995749 219.11777862 -134.71328373 211.56484798 -132.28363037 203.99859619 C-128.88524337 193.40189914 -125.5350423 182.82995022 -122.85400391 172.02539062 C-120.99808537 164.68146948 -118.70922784 157.47333565 -116.4375 150.25 C-113.38773134 140.55209807 -110.43797982 130.87126095 -108 121 C-107.01 121.33 -106.02 121.66 -105 122 C-103.89672852 124.66113281 -103.89672852 124.66113281 -102.87890625 128.203125 C-102.69287338 128.83675964 -102.50684052 129.47039429 -102.31517029 130.12322998 C-101.7192381 132.16229767 -101.14053493 134.20579478 -100.5625 136.25 C-100.17759223 137.58106514 -99.79153618 138.91179879 -99.40429688 140.2421875 C-98.82796677 142.22442741 -98.25280598 144.20695072 -97.68223572 146.19085693 C-95.07193768 155.26647879 -92.28470581 164.28650235 -89.3125 173.25 C-89.10044922 173.89839844 -88.88839844 174.54679688 -88.66992188 175.21484375 C-87.78555103 178.35894843 -87.78555103 178.35894843 -86 181 C-85.57332031 180.01386719 -85.14664063 179.02773437 -84.70703125 178.01171875 C-76.95912785 160.26885006 -68.5092625 142.84019972 -59.74389648 125.5793457 C-56.976847 120.0752359 -54.53049671 114.44402478 -52.07788086 108.79443359 C-49.70801024 103.4086281 -47.06182217 98.22962724 -44.25 93.0625 C-41.85029523 88.65259477 -39.63352694 84.41183794 -38.0625 79.625 C-35.99434475 73.34357963 -32.75765471 67.70167105 -29.63305664 61.89892578 C-27.53983329 57.99111114 -25.52518764 54.17226811 -24 50 C-22.73633537 46.70484858 -21.32936684 43.60048492 -19.65234375 40.49609375 C-19.20955078 39.66658203 -18.76675781 38.83707031 -18.31054688 37.98242188 C-17.41912302 36.33018108 -16.52105491 34.68150145 -15.61523438 33.03710938 C-13.16346936 28.51279569 -11.31706168 24.15057107 -9.78881836 19.24291992 C-8.38842771 15.26106016 -6.34073807 11.62844042 -4.3125 7.9375 C-3.89677734 7.16728516 -3.48105469 6.39707031 -3.05273438 5.60351562 C-2.0415352 3.732216 -1.02168617 1.86559466 0 0 Z M-11 77 C-16.65318955 87.43302622 -21.96393717 97.91176234 -26.73510742 108.77832031 C-29.32249788 114.62447999 -32.18596069 120.24181554 -35.26220703 125.84301758 C-37.75099388 130.41496027 -39.75166447 135.06789606 -41.68359375 139.89453125 C-43.16298058 143.3844794 -44.83935144 146.75156055 -46.5625 150.125 C-50.85154525 158.53404858 -54.78069807 167.1012551 -58.69946289 175.68798828 C-61.32607974 181.43030109 -64.03633959 187.10871293 -66.88549805 192.74365234 C-68.48709557 195.98614178 -69.90456897 199.29506929 -71.3125 202.625 C-74.00007604 208.87540203 -76.92059273 214.96858772 -80.0012207 221.03369141 C-83.50429757 227.94394081 -86.76395378 234.96159947 -90 242 C-90.66 242 -91.32 242 -92 242 C-95.15729335 231.82908043 -98.19007062 221.62479537 -101.17578125 211.40234375 C-101.51222656 210.25894531 -101.84867188 209.11554688 -102.1953125 207.9375 C-102.49453613 206.91527344 -102.79375977 205.89304687 -103.10205078 204.83984375 C-103.94821322 202.16378027 -104.92076577 199.58968697 -106 197 C-108.33792969 199.33792969 -108.60449577 200.65614269 -109.41015625 203.828125 C-109.67320557 204.84044189 -109.93625488 205.85275879 -110.20727539 206.89575195 C-110.48949951 208.00265381 -110.77172363 209.10955566 -111.0625 210.25 C-113.70075676 220.33329726 -116.53739423 230.3392737 -119.5625 240.3125 C-122.214404 249.0701066 -124.85635369 257.82798896 -127.375 266.625 C-127.60131104 267.41044189 -127.82762207 268.19588379 -128.06079102 269.00512695 C-128.49285495 270.52294825 -128.90901744 272.04538978 -129.30883789 273.57202148 C-130 276 -130 276 -131.06420898 278.82055664 C-132.57495994 283.27888453 -133.51198144 286.46405567 -131.9921875 291.0234375 C-130.26643015 294.22250329 -128.36478747 297.18769462 -126.3125 300.1875 C-124.90036682 302.38368081 -123.48891009 304.58029671 -122.078125 306.77734375 C-121.02915039 308.36844971 -121.02915039 308.36844971 -119.95898438 309.99169922 C-117.34973875 313.99856919 -114.94410013 318.10535958 -112.5625 322.25 C-109.08060744 328.21267 -105.49419801 334.10030042 -101.85546875 339.96875 C-100.06591596 342.89231414 -98.33719317 345.84310206 -96.625 348.8125 C-93.83733793 353.63509159 -90.91166245 358.35409983 -87.9375 363.0625 C-85.04751442 367.6415997 -82.25499383 372.22896121 -79.6875 377 C-79.21828125 377.85207031 -78.7490625 378.70414062 -78.265625 379.58203125 C-77 382 -77 382 -75.984375 384.44921875 C-74.84900045 386.87671732 -74.11077119 388.33286435 -72 390 C-67.5921038 390.6719354 -63.42208242 390.46616389 -59 390 C-60.3289378 385.79992931 -61.90167808 381.84543893 -63.7578125 377.8515625 C-64.29720459 376.68890869 -64.83659668 375.52625488 -65.39233398 374.32836914 C-65.96966731 373.09380891 -66.54722691 371.85935448 -67.125 370.625 C-67.71624304 369.35604578 -68.30747017 368.08708416 -68.89868164 366.81811523 C-71.99402376 360.19053362 -75.1371122 353.59093151 -78.4375 347.0625 C-78.74631104 346.44995361 -79.05512207 345.83740723 -79.37329102 345.20629883 C-81.14819669 341.68718689 -81.14819669 341.68718689 -82.92675781 338.16992188 C-83.81983181 336.39131832 -84.69158228 334.60205696 -85.5625 332.8125 C-86.05878906 331.80832031 -86.55507812 330.80414063 -87.06640625 329.76953125 C-88.41553703 325.7672981 -87.64972475 323.43712352 -85.94921875 319.67578125 C-85.53285156 318.89589844 -85.11648437 318.11601562 -84.6875 317.3125 C-82.95073675 314.0526447 -81.49221828 310.77169834 -80.1484375 307.3359375 C-77.99150677 301.86836891 -75.50276832 296.59838172 -72.9375 291.3125 C-72.22339966 289.82907104 -72.22339966 289.82907104 -71.49487305 288.31567383 C-69.99939794 285.20908271 -68.49999383 282.10441144 -67 279 C-59.33340076 263.15424509 -59.33340076 263.15424509 -52.0625 247.125 C-47.01813039 235.60436136 -41.47445588 224.32059118 -36 213 C-28.21781267 196.93158446 -28.21781267 196.93158446 -20.8125 180.6875 C-20.52076904 180.02935303 -20.22903809 179.37120605 -19.9284668 178.69311523 C-18.46613473 175.46551546 -18.46613473 175.46551546 -18 172 C-17.01 172 -16.02 172 -15 172 C-14.84337891 172.94939453 -14.84337891 172.94939453 -14.68359375 173.91796875 C-13.74620156 178.14426838 -12.4214477 182.20471095 -11.0625 186.3125 C-10.76110107 187.22386719 -10.45970215 188.13523437 -10.14916992 189.07421875 C-7.34419011 197.34831357 -4.04467018 205.38188775 -0.55297852 213.38793945 C0.67799032 216.24198537 1.85237497 219.11147792 3 222 C3.38397949 222.93803467 3.76795898 223.87606934 4.16357422 224.8425293 C7.94151627 235.28220301 7.67031478 245.85392855 7.75 256.8125 C7.77821547 258.77671836 7.80815049 260.7409128 7.83984375 262.70507812 C7.91304021 267.47000839 7.96301734 272.23465673 8 277 C9.10594859 276.06604157 10.20988159 275.12969613 11.31298828 274.19238281 C12.23544846 273.4106369 12.23544846 273.4106369 13.17654419 272.61309814 C15.94096094 270.16759028 18.40541354 267.48797454 20.875 264.75 C21.38603271 264.19151367 21.89706543 263.63302734 22.42358398 263.05761719 C24.86454899 260.38394355 27.28040283 257.69019717 29.66796875 254.96875 C30.85326172 253.62296875 30.85326172 253.62296875 32.0625 252.25 C33.10083984 251.05117188 33.10083984 251.05117188 34.16015625 249.828125 C36 248 36 248 39 247 C39.36931641 248.79824219 39.36931641 248.79824219 39.74609375 250.6328125 C41.19601689 257.14034157 43.13721825 263.49511253 45.0625 269.875 C45.35288651 270.84495407 45.35288651 270.84495407 45.6491394 271.83450317 C47.84699782 279.17130146 50.12184053 286.4732066 52.59375 293.72265625 C53.0074585 294.93775879 53.42116699 296.15286133 53.84741211 297.40478516 C54.63990115 299.70884711 55.4423441 302.00951655 56.25610352 304.30615234 C58.91893494 312.01174683 60.42079421 317.32563437 56.83984375 324.96875 C55.88584345 326.81949389 54.91769203 328.66299343 53.9375 330.5 C52.9176318 332.46920408 51.89940458 334.43925889 50.8828125 336.41015625 C50.38555664 337.36680176 49.88830078 338.32344727 49.37597656 339.30908203 C47.58675382 342.80816171 45.93360816 346.35825999 44.3125 349.9375 C42.00449655 354.96308065 39.51927718 359.83503887 36.875 364.6875 C32.44311145 372.83608095 28.87690319 381.17490509 26 390 C30.55197166 390.8118608 34.47531162 391.0686188 39 390 C42.21648414 386.77811907 44.07681776 383.06215371 46.02001953 379.00292969 C47.40487121 376.17250538 48.9541527 373.44498241 50.50878906 370.70507812 C51.2721846 369.35790952 52.02609898 368.00530575 52.76855469 366.64648438 C54.90820133 362.75513813 57.2643633 359.17612606 59.88647461 355.59423828 C61.80432136 352.84845024 63.10322 349.85276827 64.49609375 346.8203125 C65.82040366 344.33680145 67.24545356 342.09301525 68.8203125 339.765625 C71.92626977 335.17445803 74.70291174 330.44390513 77.4375 325.625 C80.38622797 320.47775047 83.33827578 315.35650283 86.5625 310.375 C87.0884375 309.55 87.614375 308.725 88.15625 307.875 C89.1938556 306.25703872 90.23659529 304.64225651 91.296875 303.0390625 C92.74572693 300.83394171 94.15529727 298.60688111 95.5625 296.375 C96.02922119 295.68196777 96.49594238 294.98893555 96.97680664 294.27490234 C99.28315624 290.547531 100.40471794 288.05875976 99.4921875 283.68359375 C99.02393692 282.11340811 98.52430825 280.55236671 98 279 C97.45913611 277.17072047 96.9187967 275.34128581 96.37890625 273.51171875 C95.77688256 271.56924144 95.17136231 269.62784464 94.5625 267.6875 C92.75958377 261.93755425 91.01935003 256.20996895 89.6171875 250.34765625 C87.48059396 241.59762803 84.60207661 233.06836549 81.83666992 224.50146484 C78.8621571 215.26688596 76.14849723 206.04807743 73.89916992 196.60839844 C72.50126325 190.99855304 70.77144748 185.5027943 69 180 C66.37294948 182.62705052 65.83859595 185.02672318 64.6875 188.5625 C64.36483154 189.54984131 64.36483154 189.54984131 64.03564453 190.55712891 C62.16154638 196.35363146 60.44180841 202.19417968 58.74609375 208.04492188 C57.28608285 213.07540814 55.71064609 218.04812973 54 223 C53.34 223 52.68 223 52 223 C51.55515259 222.13217896 51.55515259 222.13217896 51.10131836 221.24682617 C43.85810834 206.95765112 43.85810834 206.95765112 35.4375 193.3515625 C33.97039432 190.95156897 32.9305722 188.49525465 31.85742188 185.90087891 C30.27705461 182.39725148 28.23744648 179.15913183 26.25 175.875 C23.19626589 170.76349507 20.2204489 165.64109535 17.4375 160.375 C14.90139085 155.58457161 12.19273878 150.93965773 9.375 146.3125 C6.39910462 141.42352902 3.6174028 136.52416224 1.16796875 131.34375 C-0.04388567 128.8144409 -0.04388567 128.8144409 -1.98242188 125.8527832 C-4.1518667 122.05935257 -4.9215489 118.31562591 -5.44921875 114.01171875 C-5.55216751 113.26847855 -5.65511627 112.52523834 -5.76118469 111.75947571 C-6.08389403 109.40378556 -6.38582732 107.04596591 -6.6875 104.6875 C-6.90036813 103.11765836 -7.11455054 101.54799435 -7.33007812 99.97851562 C-8.36856392 92.33181365 -9.29847488 84.68594008 -10 77 C-10.33 77 -10.66 77 -11 77 Z " fill="#CC5154" transform="translate(254,57)"/>
<path d="M0 0 C0.99 0.33 1.98 0.66 3 1 C3 29.71 3 58.42 3 88 C5.98902 87.18188613 5.98902 87.18188613 8.0625 85.4375 C10 84 10 84 12 84 C12 83.34 12 82.68 12 82 C12.99 82.33 13.98 82.66 15 83 C14.0919838 84.13199353 13.17316174 85.25532363 12.25 86.375 C11.73953125 87.00148438 11.2290625 87.62796875 10.703125 88.2734375 C9 90 9 90 6.859375 91.0390625 C4.64209631 91.91104318 4.64209631 91.91104318 4 95 C3.01 95 2.02 95 1 95 C0.67 63.65 0.34 32.3 0 0 Z " fill="#CC5154" transform="translate(239,293)"/>
<path d="M0 0 C0.99 0 1.98 0 3 0 C4.35439668 2.70879335 4.06501451 5.00933268 4 8 C-1.75 11 -1.75 11 -4 11 C-4.33 12.32 -4.66 13.64 -5 15 C24.205 15.495 24.205 15.495 54 16 C54 16.33 54 16.66 54 17 C34.2 17 14.4 17 -6 17 C-7.21225993 12.15096028 -5.92898459 10.3055574 -3.5625 6.25 C-3.22412109 5.64800781 -2.88574219 5.04601562 -2.53710938 4.42578125 C-1.70231735 2.94431935 -0.85258506 1.47129392 0 0 Z " fill="#CC5154" transform="translate(251,453)"/>
<path d="M0 0 C2.0625 1.6875 2.0625 1.6875 4 4 C3.6875 6.625 3.6875 6.625 3 9 C3.33 9.66 3.66 10.32 4 11 C3.67 11.66 3.34 12.32 3 13 C3.99 13.33 4.98 13.66 6 14 C8.04108797 17.00791911 8.19878036 19.42195344 8 23 C5.40208961 19.64812192 3.0764541 16.14470585 0.8125 12.5625 C0.26045898 11.72235352 0.26045898 11.72235352 -0.30273438 10.86523438 C-2.46015643 7.43497334 -3.46321002 5.0625797 -3 1 C-2.01 1.33 -1.02 1.66 0 2 C0 1.34 0 0.68 0 0 Z " fill="#CC5154" transform="translate(276,217)"/>
<path d="M0 0 C0.33 0.99 0.66 1.98 1 3 C1.66 3 2.32 3 3 3 C3.28875 3.598125 3.5775 4.19625 3.875 4.8125 C5.04742026 7.19327792 5.04742026 7.19327792 7 10 C10 14.73076923 10 14.73076923 10 17 C10.99 17.33 11.98 17.66 13 18 C14.80266269 21.41557141 15.218934 24.16865501 15 28 C11.83577507 24.2636719 9.35541091 20.33628268 7 16.0625 C6.33554151 14.86465785 5.66888727 13.66803097 5 12.47265625 C4.67644531 11.89273926 4.35289062 11.31282227 4.01953125 10.71533203 C3.00057641 9.0009698 1.8427942 7.37170198 0.6875 5.74609375 C-0.1478125 4.38677734 -0.1478125 4.38677734 -1 3 C-0.67 2.01 -0.34 1.02 0 0 Z " fill="#CC5154" transform="translate(149,432)"/>
<path d="M0 0 C0.33 0.66 0.66 1.32 1 2 C0.37915039 3.69580078 0.37915039 3.69580078 -0.65234375 5.6953125 C-1.01650391 6.41074219 -1.38066406 7.12617188 -1.75585938 7.86328125 C-2.14580078 8.60964844 -2.53574219 9.35601562 -2.9375 10.125 C-3.32357422 10.87910156 -3.70964844 11.63320313 -4.10742188 12.41015625 C-5.06452132 14.27709097 -6.03136106 16.13902628 -7 18 C-10 17 -10 17 -11.25 14.6875 C-12.0275526 11.90126985 -11.98726527 10.66561622 -11 8 C-10.34 9.98 -9.68 11.96 -9 14 C-8.34 13.01 -7.68 12.02 -7 11 C-6.34 11 -5.68 11 -5 11 C-5.061875 9.8553125 -5.061875 9.8553125 -5.125 8.6875 C-5 6 -5 6 -3 3 C-2.34 3 -1.68 3 -1 3 C-0.67 2.01 -0.34 1.02 0 0 Z " fill="#CC5154" transform="translate(171,282)"/>
<path d="M0 0 C0.99 0.33 1.98 0.66 3 1 C2.0919838 2.13199353 1.17316174 3.25532363 0.25 4.375 C-0.26046875 5.00148438 -0.7709375 5.62796875 -1.296875 6.2734375 C-3 8 -3 8 -5.140625 9.0390625 C-7.35790369 9.91104318 -7.35790369 9.91104318 -8 13 C-8.66 13 -9.32 13 -10 13 C-9.67 10.69 -9.34 8.38 -9 6 C-8.01 5.67 -7.02 5.34 -6 5 C-5.319375 4.484375 -4.63875 3.96875 -3.9375 3.4375 C-2 2 -2 2 0 2 C0 1.34 0 0.68 0 0 Z " fill="#CC5154" transform="translate(251,375)"/>
<path d="M0 0 C0.99 0 1.98 0 3 0 C5.125 4.625 5.125 4.625 4 8 C3.34 7.67 2.68 7.34 2 7 C1.67 7.66 1.34 8.32 1 9 C0.01 8.67 -0.98 8.34 -2 8 C-2.33 9.32 -2.66 10.64 -3 12 C-3.66 12 -4.32 12 -5 12 C-3.68938409 7.76570244 -2.05643741 3.92592596 0 0 Z " fill="#CC5154" transform="translate(236,229)"/>
<path d="M0 0 C0.66 0 1.32 0 2 0 C2.12375 1.546875 2.12375 1.546875 2.25 3.125 C3.062251 7.32163015 4.52919434 9.57275344 7 13 C7 13.66 7 14.32 7 15 C5.1796875 14.80078125 5.1796875 14.80078125 3 14 C1.4453125 11.85546875 1.4453125 11.85546875 0.125 9.1875 C-0.32617188 8.31480469 -0.77734375 7.44210937 -1.2421875 6.54296875 C-2 4 -2 4 -1.1328125 1.67578125 C-0.75898437 1.12277344 -0.38515625 0.56976563 0 0 Z " fill="#CC5154" transform="translate(120,340)"/>
<path d="M0 0 C0.99 0 1.98 0 3 0 C3.33 4.29 3.66 8.58 4 13 C3.34 13 2.68 13 2 13 C2 10.36 2 7.72 2 5 C0.68 5.33 -0.64 5.66 -2 6 C-2 6.99 -2 7.98 -2 9 C-2.66 9 -3.32 9 -4 9 C-2.94124926 5.59687262 -1.99097846 2.98646769 0 0 Z " fill="#CC5154" transform="translate(254,57)"/>
<path d="M0 0 C0.99 0 1.98 0 3 0 C1.51481201 4.04301175 -0.42877998 7.61146256 -2.625 11.3125 C-3.25664062 12.38113281 -3.88828125 13.44976562 -4.5390625 14.55078125 C-5.02117187 15.35902344 -5.50328125 16.16726563 -6 17 C-6.66 16.01 -7.32 15.02 -8 14 C-7.01 13.67 -6.02 13.34 -5 13 C-5.33 12.01 -5.66 11.02 -6 10 C-5.0390625 8.02734375 -5.0390625 8.02734375 -3.625 5.9375 C-2.93277344 4.89916016 -2.93277344 4.89916016 -2.2265625 3.83984375 C-1.82179688 3.23269531 -1.41703125 2.62554687 -1 2 C-0.67 1.34 -0.34 0.68 0 0 Z " fill="#CC5154" transform="translate(336,412)"/>
<path d="M0 0 C0.33 0 0.66 0 1 0 C1.34833144 4.87664009 0.41685712 7.77050005 -2 12 C2.29 12 6.58 12 11 12 C11 12.33 11 12.66 11 13 C6.38 13 1.76 13 -3 13 C-3 11.68 -3 10.36 -3 9 C-3.66 8.67 -4.32 8.34 -5 8 C-4.34 8 -3.68 8 -3 8 C-2.690625 6.865625 -2.38125 5.73125 -2.0625 4.5625 C-1 1 -1 1 0 0 Z " fill="#CC5154" transform="translate(282,435)"/>
<path d="M0 0 C0.99 0.33 1.98 0.66 3 1 C2.38221953 3.60607392 1.75612789 6.20965697 1.125 8.8125 C0.95097656 9.55048828 0.77695313 10.28847656 0.59765625 11.04882812 C-0.24492511 14.49717037 -1.01285575 17.01928362 -3 20 C-3.33 18.02 -3.66 16.04 -4 14 C-3.34 13.67 -2.68 13.34 -2 13 C-1.30662208 9.9600352 -1.30662208 9.9600352 -0.875 6.4375 C-0.70742187 5.23996094 -0.53984375 4.04242188 -0.3671875 2.80859375 C-0.24601563 1.88175781 -0.12484375 0.95492188 0 0 Z " fill="#CC5154" transform="translate(141,265)"/>
<path d="M0 0 C1.65 0.33 3.3 0.66 5 1 C4.41083216 4.63320166 2.94481799 6.54466862 0.5 9.25 C-0.1290625 9.95640625 -0.758125 10.6628125 -1.40625 11.390625 C-1.9321875 11.92171875 -2.458125 12.4528125 -3 13 C-3.33 13 -3.66 13 -4 13 C-4.3674833 8.46770601 -4.3674833 8.46770601 -2.625 6.25 C-1 5 -1 5 1 4 C0.67 2.68 0.34 1.36 0 0 Z " fill="#CC5154" transform="translate(259,362)"/>
<path d="M0 0 C0 3.02131474 -0.0232997 5.13966342 -1 8 C-4.0625 10.3125 -4.0625 10.3125 -7 12 C-7.66 11.34 -8.32 10.68 -9 10 C-6.03 6.7 -3.06 3.4 0 0 Z " fill="#CC5154" transform="translate(279,316)"/>
<path d="M0 0 C2.71494932 2.71494932 2.76631285 5.21472069 3.4375 8.90625 C3.8668085 11.1997607 3.8668085 11.1997607 6 13 C5.625 16.625 5.625 16.625 5 20 C3.27928529 16.7610076 2.01202458 13.46433092 0.8125 10 C0.44769531 8.96875 0.08289063 7.9375 -0.29296875 6.875 C-0.99337963 4.02692041 -1.01828944 2.69814272 0 0 Z " fill="#CC5154" transform="translate(152,262)"/>
<path d="M0 0 C1.28497537 3.85492611 0.4052209 5.40346836 -0.9375 9.1875 C-1.31777344 10.27417969 -1.69804687 11.36085938 -2.08984375 12.48046875 C-2.39019531 13.31191406 -2.69054687 14.14335937 -3 15 C-4.32 15 -5.64 15 -7 15 C-7.33 14.01 -7.66 13.02 -8 12 C-7.34 12 -6.68 12 -6 12 C-6 12.66 -6 13.32 -6 14 C-5.34 14 -4.68 14 -4 14 C-3.67 11.03 -3.34 8.06 -3 5 C-3.99 5.33 -4.98 5.66 -6 6 C-5.67 4.68 -5.34 3.36 -5 2 C-4.67 2.66 -4.34 3.32 -4 4 C-3.01 4 -2.02 4 -1 4 C-0.67 2.68 -0.34 1.36 0 0 Z " fill="#CC5154" transform="translate(312,265)"/>
<path d="M0 0 C1 2 1 2 0.1875 4.6875 C-0.204375 5.780625 -0.59625 6.87375 -1 8 C-1.309375 9.216875 -1.61875 10.43375 -1.9375 11.6875 C-2.92591163 14.76901861 -3.49743057 16.06619635 -6 18 C-6.36020428 13.00216563 -5.34389935 10.01981128 -3 5.625 C-2.443125 4.56539062 -1.88625 3.50578125 -1.3125 2.4140625 C-0.879375 1.61742187 -0.44625 0.82078125 0 0 Z " fill="#CC5154" transform="translate(193,185)"/>
<path d="M0 0 C1.30230734 3.00646952 0.96485975 4.09355667 -0.21484375 7.234375 C-0.78332031 8.39453125 -1.35179687 9.5546875 -1.9375 10.75 C-2.50339844 11.92046875 -3.06929687 13.0909375 -3.65234375 14.296875 C-4.09707031 15.18890625 -4.54179687 16.0809375 -5 17 C-5.33 17 -5.66 17 -6 17 C-5.88590407 15.54077307 -5.75834456 14.08259402 -5.625 12.625 C-5.55539063 11.81289063 -5.48578125 11.00078125 -5.4140625 10.1640625 C-5 8 -5 8 -3 6 C-2.34 5.67 -1.68 5.34 -1 5 C-0.34444881 2.47266765 -0.34444881 2.47266765 0 0 Z " fill="#CC5154" transform="translate(200,355)"/>
<path d="M0 0 C0.66 0 1.32 0 2 0 C1.41841104 4.03477342 0.13243941 6.85241201 -2 10.3125 C-2.53625 11.19550781 -3.0725 12.07851563 -3.625 12.98828125 C-4.07875 13.65214844 -4.5325 14.31601562 -5 15 C-5.33 15 -5.66 15 -6 15 C-6.34986966 10.8015641 -5.60104849 9.22530013 -3 6 C-2.29485154 3.85266073 -2.29485154 3.85266073 -2 2 C-1.34 2 -0.68 2 0 2 C0 1.34 0 0.68 0 0 Z " fill="#CC5154" transform="translate(374,349)"/>
<path d="M0 0 C1.5 1.375 1.5 1.375 3 3 C3 3.66 3 4.32 3 5 C2.01 5.495 2.01 5.495 1 6 C-0.09166275 7.93330603 -0.09166275 7.93330603 -1 10 C-1.33 10.66 -1.66 11.32 -2 12 C-2.99 12 -3.98 12 -5 12 C-5 12.99 -5 13.98 -5 15 C-5.66 15 -6.32 15 -7 15 C-5.63408831 11.45756548 -4.09068516 8.07372071 -2.375 4.6875 C-1.70597656 3.36298828 -1.70597656 3.36298828 -1.0234375 2.01171875 C-0.68570312 1.34785156 -0.34796875 0.68398438 0 0 Z " fill="#CC5154" transform="translate(354,342)"/>
<path d="M0 0 C1.32 0 2.64 0 4 0 C3.67 2.97 3.34 5.94 3 9 C2.34 9 1.68 9 1 9 C1 8.34 1 7.68 1 7 C0.34 7 -0.32 7 -1 7 C-1.04254356 5.00045254 -1.04080783 2.99958364 -1 1 C-0.67 0.67 -0.34 0.34 0 0 Z " fill="#CC5154" transform="translate(305,270)"/>
<path d="M0 0 C0.66 1.32 1.32 2.64 2 4 C1.01 4 0.02 4 -1 4 C-1.103125 4.70125 -1.20625 5.4025 -1.3125 6.125 C-2.09359003 9.39137647 -3.42058743 12.0471852 -5 15 C-4.34 15.33 -3.68 15.66 -3 16 C-4.32 16 -5.64 16 -7 16 C-6.40165275 11.85701333 -4.99335715 8.81805623 -2.9375 5.1875 C-2.11572266 3.72376953 -2.11572266 3.72376953 -1.27734375 2.23046875 C-0.85582031 1.49441406 -0.43429688 0.75835937 0 0 Z " fill="#CC5154" transform="translate(251,453)"/>
<path d="M0 0 C0.66 0 1.32 0 2 0 C0.26375242 6.4188547 -1.85180745 12.13784836 -5 18 C-5.33 18 -5.66 18 -6 18 C-6.1875 15.1875 -6.1875 15.1875 -6 12 C-4.5625 10.4375 -4.5625 10.4375 -3 9 C-2.27802838 6.39388923 -2.27802838 6.39388923 -2 4 C-1.34 4 -0.68 4 0 4 C0 2.68 0 1.36 0 0 Z " fill="#CC5154" transform="translate(229,157)"/>
<path d="M0 0 C0.99 0.33 1.98 0.66 3 1 C3 8.26 3 15.52 3 23 C2.67 23 2.34 23 2 23 C-0.29612756 7.25512528 -0.29612756 7.25512528 0 0 Z " fill="#CC5154" transform="translate(246,151)"/>
<path d="M0 0 C1.1484375 3.6875 1.1484375 3.6875 -0.1875 6.5 C-1.94904945 8.92972338 -3.88373244 10.88373244 -6 13 C-6.33 13.99 -6.66 14.98 -7 16 C-7.66 16 -8.32 16 -9 16 C-7.56691865 12.04093183 -5.66858051 8.71281819 -3.375 5.1875 C-2.74335938 4.21167969 -2.11171875 3.23585938 -1.4609375 2.23046875 C-0.73777344 1.12638672 -0.73777344 1.12638672 0 0 Z " fill="#CC5154" transform="translate(342,364)"/>
<path d="M0 0 C1.82875404 2.74313106 2.72037028 4.77074949 3.6875 7.875 C4.09548828 9.13957031 4.09548828 9.13957031 4.51171875 10.4296875 C5.05258938 13.27683047 4.7420711 15.22096865 4 18 C3.31379969 16.67661368 2.65213539 15.34050052 2 14 C1.62875 13.278125 1.2575 12.55625 0.875 11.8125 C-0.35411435 7.8617753 -0.16096648 4.10464516 0 0 Z " fill="#CC5154" transform="translate(331,189)"/>
<path d="M0 0 C2.67901932 2.31881505 3.66204403 4.31814468 4.6875 7.6875 C4.93886719 8.49574219 5.19023437 9.30398438 5.44921875 10.13671875 C5.63097656 10.75160156 5.81273437 11.36648438 6 12 C4.35 12 2.7 12 1 12 C0.67 10.02 0.34 8.04 0 6 C0.66 6 1.32 6 2 6 C1.34 4.02 0.68 2.04 0 0 Z " fill="#CC5154" transform="translate(225,457)"/>
<path d="M0 0 C0.33 0.66 0.66 1.32 1 2 C-0.07518118 4.44332726 -1.19808566 6.76754523 -2.4375 9.125 C-2.77587891 9.78371094 -3.11425781 10.44242187 -3.46289062 11.12109375 C-4.30149926 12.75106547 -5.14984811 14.37601909 -6 16 C-6.33 16 -6.66 16 -7 16 C-7 14.35 -7 12.7 -7 11 C-6.34 11 -5.68 11 -5 11 C-5.33 10.01 -5.66 9.02 -6 8 C-4.6875 5.3125 -4.6875 5.3125 -3 3 C-2.34 3 -1.68 3 -1 3 C-0.67 2.01 -0.34 1.02 0 0 Z " fill="#CC5154" transform="translate(297,408)"/>
<path d="M0 0 C0.33 0.66 0.66 1.32 1 2 C0.33333333 3.66666667 -0.33333333 5.33333333 -1 7 C-1.3813074 9.32597511 -1.72460254 11.65912158 -2 14 C-3.32 14.33 -4.64 14.66 -6 15 C-3.10933941 4.44191344 -3.10933941 4.44191344 0 0 Z " fill="#CC5154" transform="translate(277,399)"/>
<path d="M0 0 C0.99 0 1.98 0 3 0 C3.95261487 4.76307437 4.08333357 9.1666528 4 14 C3.01 13.34 2.02 12.68 1 12 C0.48828125 9.1796875 0.48828125 9.1796875 0.3125 5.875 C0.24675781 4.77929688 0.18101562 3.68359375 0.11328125 2.5546875 C0.05720703 1.29011719 0.05720703 1.29011719 0 0 Z " fill="#CC5154" transform="translate(261,115)"/>
<path d="M0 0 C0.33 0.66 0.66 1.32 1 2 C1.99 2.33 2.98 2.66 4 3 C5.80266269 6.41557141 6.218934 9.16865501 6 13 C-0.28378378 5.25 -0.28378378 5.25 0 0 Z " fill="#CC5154" transform="translate(158,447)"/>
<path d="M0 0 C1 3 1 3 -0.43359375 6.35546875 C-1.09148807 7.6380304 -1.75989743 8.91524057 -2.4375 10.1875 C-2.77587891 10.84169922 -3.11425781 11.49589844 -3.46289062 12.16992188 C-4.29969098 13.78459299 -5.14869746 15.39292763 -6 17 C-7.0390625 15.12109375 -7.0390625 15.12109375 -8 13 C-6.85762911 9.45865025 -4.2979468 6.8724335 -2 4 C-1.29114106 2.68861096 -0.60543548 1.36222983 0 0 Z " fill="#CC5154" transform="translate(225,304)"/>
<path d="M0 0 C2.31005869 2.31005869 2.72174103 3.83083657 3.625 6.9375 C3.88539063 7.81277344 4.14578125 8.68804687 4.4140625 9.58984375 C5 12 5 12 5 15 C4.01 14.67 3.02 14.34 2 14 C0.19113429 9.23982707 -0.20666253 5.06323209 0 0 Z " fill="#CC5154" transform="translate(256,277)"/>
<path d="M0 0 C0.33 0 0.66 0 1 0 C1.33 2.64 1.66 5.28 2 8 C0.35 8.66 -1.3 9.32 -3 10 C-3.33 9.34 -3.66 8.68 -4 8 C-3.22265625 6.0546875 -3.22265625 6.0546875 -2.0625 3.875 C-1.49208984 2.78832031 -1.49208984 2.78832031 -0.91015625 1.6796875 C-0.60980469 1.12539062 -0.30945313 0.57109375 0 0 Z " fill="#CC5154" transform="translate(220,128)"/>
<path d="M0 0 C0.33 0 0.66 0 1 0 C1.32613618 4.67461851 0.70582788 7.16674383 -2 11 C-2.99 10.67 -3.98 10.34 -5 10 C-3.35 6.7 -1.7 3.4 0 0 Z " fill="#CC5154" transform="translate(211,331)"/>
<path d="M0 0 C0.99 0 1.98 0 3 0 C3.66 2.97 4.32 5.94 5 9 C3.68 9 2.36 9 1 9 C1.66 7.35 2.32 5.7 3 4 C1.02 4.33 -0.96 4.66 -3 5 C-1.125 1.125 -1.125 1.125 0 0 Z " fill="#CC5154" transform="translate(290,304)"/>
<path d="M0 0 C0.33 0.66 0.66 1.32 1 2 C0.00390625 4.6015625 0.00390625 4.6015625 -1.4375 7.625 C-1.91058594 8.62789062 -2.38367188 9.63078125 -2.87109375 10.6640625 C-3.24363281 11.43492187 -3.61617187 12.20578125 -4 13 C-4.33 13 -4.66 13 -5 13 C-5.34731345 8.13761177 -4.52309739 5.17281491 -2 1 C-1.34 0.67 -0.68 0.34 0 0 Z " fill="#CC5154" transform="translate(202,216)"/>
<path d="M0 0 C1.0169313 2.65498232 1.13022151 3.69155375 0.00390625 6.359375 C-0.47175781 7.14828125 -0.94742187 7.9371875 -1.4375 8.75 C-2.14712891 9.94882812 -2.14712891 9.94882812 -2.87109375 11.171875 C-3.24363281 11.77515625 -3.61617188 12.3784375 -4 13 C-4.33 13 -4.66 13 -5 13 C-4.54996653 7.37458159 -3.31558515 4.38512875 0 0 Z " fill="#CC5154" transform="translate(318,444)"/>
<path d="M0 0 C0 0.99 0 1.98 0 3 C-0.66 3 -1.32 3 -2 3 C-2 4.98 -2 6.96 -2 9 C-2.99 9.33 -3.98 9.66 -5 10 C-6.26339822 6.20980534 -5.49719015 4.62477616 -4 1 C-2 0 -2 0 0 0 Z " fill="#CC5154" transform="translate(199,318)"/>
<path d="M0 0 C1.32 0 2.64 0 4 0 C4 0.99 4 1.98 4 3 C4.66 3.33 5.32 3.66 6 4 C6.75 5.9375 6.75 5.9375 7 8 C6.34 8.66 5.68 9.32 5 10 C3.35 6.7 1.7 3.4 0 0 Z " fill="#CC5154" transform="translate(298,266)"/>
<path d="M0 0 C0.99 0.33 1.98 0.66 3 1 C2.67 1.66 2.34 2.32 2 3 C2.99 3.33 3.98 3.66 5 4 C7.04108797 7.00791911 7.19878036 9.42195344 7 13 C0 4.25 0 4.25 0 0 Z " fill="#CC5154" transform="translate(277,227)"/>
<path d="M0 0 C2.96865509 2.54456151 4.3619751 5.48994665 6 9 C5.01 10.485 5.01 10.485 4 12 C-0.57142857 4.71428571 -0.57142857 4.71428571 0 0 Z " fill="#CC5154" transform="translate(258,191)"/>
<path d="M0 0 C0.99 0.33 1.98 0.66 3 1 C2.67 3.64 2.34 6.28 2 9 C0.68 9 -0.64 9 -2 9 C-1.34 6.03 -0.68 3.06 0 0 Z " fill="#CC5154" transform="translate(146,178)"/>
<path d="M0 0 C0.99 0 1.98 0 3 0 C4.6290678 4.79137588 5.20577428 8.05632546 4 13 C2.06622327 10.09933491 1.72492386 9.20923972 1.4375 5.9375 C1.25413459 2.22018139 1.25413459 2.22018139 0 0 Z " fill="#CC5154" transform="translate(322,163)"/>
<path d="M0 0 C3 1 3 1 3.87890625 2.671875 C4.10449219 3.35765625 4.33007812 4.0434375 4.5625 4.75 C4.80742187 5.46671875 5.05234375 6.1834375 5.3046875 6.921875 C5.53414062 7.60765625 5.76359375 8.2934375 6 9 C6.66066719 10.66905395 7.32438252 12.3369416 8 14 C4.31534095 10.71012585 2.22105818 7.36279286 0 3 C0 2.01 0 1.02 0 0 Z " fill="#CC5154" transform="translate(129,400)"/>
<path d="M0 0 C0.66 0 1.32 0 2 0 C3.06775224 1.96466413 4.06553465 3.96855359 5 6 C4.67 6.66 4.34 7.32 4 8 C3.01 7.67 2.02 7.34 1 7 C1 6.01 1 5.02 1 4 C0.01 4 -0.98 4 -2 4 C-1.34 2.68 -0.68 1.36 0 0 Z " fill="#CC5154" transform="translate(203,414)"/>
<path d="M0 0 C0.66 0.66 1.32 1.32 2 2 C0.02 4.31 -1.96 6.62 -4 9 C-4.33 7.68 -4.66 6.36 -5 5 C-2.5625 2.25 -2.5625 2.25 0 0 Z " fill="#CC5154" transform="translate(270,355)"/>
<path d="M0 0 C0.99 0 1.98 0 3 0 C1.68938409 4.23429756 0.05643741 8.07407404 -2 12 C-2.33 12 -2.66 12 -3 12 C-3 10.35 -3 8.7 -3 7 C-2.34 7 -1.68 7 -1 7 C-1.33 5.68 -1.66 4.36 -2 3 C-1.01 3 -0.02 3 1 3 C0.67 2.01 0.34 1.02 0 0 Z " fill="#CC5154" transform="translate(183,253)"/>
<path d="M0 0 C0.99 0 1.98 0 3 0 C1.63016497 3.16115776 1.0109362 3.9927092 -2 6 C-2.33 6.99 -2.66 7.98 -3 9 C-3.66 9 -4.32 9 -5 9 C-3.76067171 5.56801397 -2.49698489 2.69674368 0 0 Z " fill="#CC5154" transform="translate(313,413)"/>
<path d="M0 0 C2.29903669 4.10542266 4.35523153 8.69099505 3.625 13.4375 C3.41875 13.953125 3.2125 14.46875 3 15 C3 14.01 3 13.02 3 12 C2.34 12 1.68 12 1 12 C0.22596442 7.93631321 -0.0984702 4.13574827 0 0 Z " fill="#CC5154" transform="translate(154,198)"/>
<path d="M0 0 C1.125 1.75 1.125 1.75 2 4 C1.0625 6.125 1.0625 6.125 0 8 C0.33 8.66 0.66 9.32 1 10 C-0.98 10.99 -0.98 10.99 -3 12 C-2.68950274 10.56206608 -2.3765224 9.1246682 -2.0625 7.6875 C-1.88847656 6.88699219 -1.71445313 6.08648437 -1.53515625 5.26171875 C-1 3 -1 3 0 0 Z " fill="#CC5154" transform="translate(141,197)"/>
<path d="M0 0 C0.99 0 1.98 0 3 0 C1.84414715 3.91211733 0.64465038 6.8745041 -2 10 C-2.17942163 6.05272412 -2.09350689 3.4019487 0 0 Z " fill="#CC5154" transform="translate(237,139)"/>
<path d="M0 0 C0.99 0 1.98 0 3 0 C1.66511872 3.59391114 0.03977277 6.75490696 -2 10 C-2.33 8.68 -2.66 7.36 -3 6 C-2.34 6 -1.68 6 -1 6 C-0.67 4.02 -0.34 2.04 0 0 Z " fill="#CC5154" transform="translate(353,384)"/>
<path d="M0 0 C2 3 2 3 2 5 C2.99 5.33 3.98 5.66 5 6 C5.33 7.98 5.66 9.96 6 12 C3.05248333 9.25576034 0.77226322 6.63780345 -1 3 C-0.67 2.01 -0.34 1.02 0 0 Z " fill="#CC5154" transform="translate(105,358)"/>
<path d="M0 0 C1.18414294 3.55242882 0.69535532 4.69830562 -0.4375 8.1875 C-0.72496094 9.08855469 -1.01242188 9.98960937 -1.30859375 10.91796875 C-1.53675781 11.60503906 -1.76492187 12.29210937 -2 13 C-2.33 13 -2.66 13 -3 13 C-3 10.03 -3 7.06 -3 4 C-2.34 4 -1.68 4 -1 4 C-0.67 2.68 -0.34 1.36 0 0 Z " fill="#CC5154" transform="translate(128,317)"/>
<path d="M0 0 C0.99 0 1.98 0 3 0 C1.68938409 4.23429756 0.05643741 8.07407404 -2 12 C-3.33332095 9.3333581 -2.67102033 7.83319697 -2 5 C-1.34 5 -0.68 5 0 5 C0 3.35 0 1.7 0 0 Z " fill="#CC5154" transform="translate(208,200)"/>
<path d="M0 0 C1.5 1.375 1.5 1.375 3 3 C3 3.66 3 4.32 3 5 C0 7 0 7 -2 8 C-2.66 7.67 -3.32 7.34 -4 7 C-3.67 5.68 -3.34 4.36 -3 3 C-2.01 3 -1.02 3 0 3 C0 2.01 0 1.02 0 0 Z " fill="#CC5154" transform="translate(211,150)"/>
<path d="M0 0 C0.66 0 1.32 0 2 0 C0.68139111 4.61513112 -1.21355437 8.09897612 -4 12 C-4 8.76344816 -3.3449153 7.21247361 -2 4.3125 C-1.62875 3.50425781 -1.2575 2.69601562 -0.875 1.86328125 C-0.58625 1.24839844 -0.2975 0.63351562 0 0 Z " fill="#CC5154" transform="translate(344,400)"/>
<path d="M0 0 C1.09658936 3.28976808 0.79953138 4.71303767 0 8 C-0.66 8 -1.32 8 -2 8 C-2 7.34 -2 6.68 -2 6 C-3.32 6.33 -4.64 6.66 -6 7 C-4.02 4.69 -2.04 2.38 0 0 Z " fill="#CC5154" transform="translate(269,327)"/>
<path d="M0 0 C2.12508244 3.18762365 2.5020163 5.26512223 3 9 C1.35 7.35 -0.3 5.7 -2 4 C-1 1 -1 1 0 0 Z " fill="#CC5154" transform="translate(296,316)"/>
<path d="M0 0 C0.33 0.66 0.66 1.32 1 2 C0.22265625 3.9453125 0.22265625 3.9453125 -0.9375 6.125 C-1.31777344 6.84945313 -1.69804687 7.57390625 -2.08984375 8.3203125 C-2.39019531 8.87460937 -2.69054687 9.42890625 -3 10 C-5 7 -5 7 -4.625 4.8125 C-4.41875 4.214375 -4.2125 3.61625 -4 3 C-3.34 3 -2.68 3 -2 3 C-2 2.34 -2 1.68 -2 1 C-1.34 0.67 -0.68 0.34 0 0 Z " fill="#CC5154" transform="translate(176,271)"/>
<path d="M0 0 C2 3 2 3 2 6 C1.34 6 0.68 6 0 6 C0 7.65 0 9.3 0 11 C-0.66 11 -1.32 11 -2 11 C-1.125 3.375 -1.125 3.375 0 0 Z " fill="#CC5154" transform="translate(317,177)"/>
<path d="M0 0 C2.15377564 2.62198774 3.40072174 4.64404172 4 8 C3.01 8.33 2.02 8.66 1 9 C0 8 0 8 -0.09765625 6.15234375 C-0.06510417 4.1015625 -0.03255208 2.05078125 0 0 Z " fill="#CC5154" transform="translate(193,391)"/>
<path d="M0 0 C0.33 0.66 0.66 1.32 1 2 C0.22265625 3.9453125 0.22265625 3.9453125 -0.9375 6.125 C-1.31777344 6.84945313 -1.69804687 7.57390625 -2.08984375 8.3203125 C-2.39019531 8.87460937 -2.69054687 9.42890625 -3 10 C-5 7 -5 7 -5 5 C-4.01 5 -3.02 5 -2 5 C-2.33 4.01 -2.66 3.02 -3 2 C-2.01 1.34 -1.02 0.68 0 0 Z " fill="#CC5154" transform="translate(309,383)"/>
<path d="M0 0 C3.0916909 2.52956528 3.90931332 5.22454612 5 9 C4.01 8.67 3.02 8.34 2 8 C1.6278958 6.67696283 1.29369827 5.34262065 1 4 C0.34 3.67 -0.32 3.34 -1 3 C-0.67 2.01 -0.34 1.02 0 0 Z " fill="#CC5154" transform="translate(139,375)"/>
<path d="M0 0 C0.33 0 0.66 0 1 0 C1.36923077 6.4 1.36923077 6.4 -0.5 9.4375 C-0.995 9.953125 -1.49 10.46875 -2 11 C-2.95465783 8.83032311 -3.14401212 7.43671207 -2.3984375 5.17578125 C-1.64129615 3.4315257 -0.82390802 1.71372869 0 0 Z " fill="#CC5154" transform="translate(313,370)"/>
<path d="M0 0 C1.90318884 2.85478326 2.4619099 4.41941308 3.125 7.6875 C3.29257813 8.49574219 3.46015625 9.30398437 3.6328125 10.13671875 C3.75398437 10.75160156 3.87515625 11.36648437 4 12 C3.01 12 2.02 12 1 12 C0.67 8.04 0.34 4.08 0 0 Z " fill="#CC5154" transform="translate(159,216)"/>
<path d="M0 0 C1.875 0.625 1.875 0.625 4 2 C5.25 5.125 5.25 5.125 6 8 C5.01 8 4.02 8 3 8 C0 2.25 0 2.25 0 0 Z " fill="#CC5154" transform="translate(272,177)"/>
<path d="M0 0 C2.475 0.495 2.475 0.495 5 1 C5 3.31 5 5.62 5 8 C2.74754119 5.31158141 1.11786042 3.35358125 0 0 Z " fill="#CC5154" transform="translate(143,425)"/>
<path d="M0 0 C0.99 0 1.98 0 3 0 C3.625 2.8125 3.625 2.8125 4 6 C3.01 7.485 3.01 7.485 2 9 C1.34 6.03 0.68 3.06 0 0 Z " fill="#CC5154" transform="translate(351,333)"/>
<path d="M0 0 C2.29633824 3.44450737 2.54016485 5.93812283 3 10 C2.566875 9.525625 2.13375 9.05125 1.6875 8.5625 C-0.02309613 6.76313043 -0.02309613 6.76313043 -3 6 C-2.34 5.34 -1.68 4.68 -1 4 C-0.3574765 1.93125966 -0.3574765 1.93125966 0 0 Z " fill="#CC5154" transform="translate(364,301)"/>
<path d="M0 0 C0.33 0 0.66 0 1 0 C1 1.65 1 3.3 1 5 C1.66 5.33 2.32 5.66 3 6 C2.01 7.485 2.01 7.485 1 9 C0.01 9 -0.98 9 -2 9 C-1.34 6.03 -0.68 3.06 0 0 Z " fill="#CC5154" transform="translate(123,257)"/>
<path d="M0 0 C2.15377564 2.62198774 3.40072174 4.64404172 4 8 C2.68 7.67 1.36 7.34 0 7 C0 4.69 0 2.38 0 0 Z " fill="#CC5154" transform="translate(209,424)"/>
<path d="M0 0 C0.99 0.33 1.98 0.66 3 1 C3 2.65 3 4.3 3 6 C3.99 6.33 4.98 6.66 6 7 C5.34 7 4.68 7 4 7 C3.67 7.66 3.34 8.32 3 9 C0 3.375 0 3.375 0 0 Z " fill="#CC5154" transform="translate(181,415)"/>
<path d="M0 0 C0.99 0 1.98 0 3 0 C1.7508258 3.45925163 0.32472205 6.14693203 -2 9 C-1.125 2.25 -1.125 2.25 0 0 Z " fill="#CC5154" transform="translate(336,412)"/>
<path d="M0 0 C0.33 1.32 0.66 2.64 1 4 C1.66 4 2.32 4 3 4 C2.67 5.32 2.34 6.64 2 8 C1.34 8 0.68 8 0 8 C-1.125 6.25 -1.125 6.25 -2 4 C-1.125 1.75 -1.125 1.75 0 0 Z " fill="#CC5154" transform="translate(281,391)"/>
<path d="M0 0 C1.98 0.99 1.98 0.99 4 2 C3.67 4.64 3.34 7.28 3 10 C0.70366176 6.55549263 0.45983515 4.06187717 0 0 Z " fill="#CC5154" transform="translate(329,259)"/>
<path d="M0 0 C3.80666984 1.44390925 5.26602582 3.34952803 7 7 C6.67 7.66 6.34 8.32 6 9 C4.62437146 7.71034824 3.29233607 6.37310707 2 5 C2 4.34 2 3.68 2 3 C1.01 2.34 0.02 1.68 -1 1 C-0.67 0.67 -0.34 0.34 0 0 Z " fill="#CC5154" transform="translate(289,207)"/>
<path d="M0 0 C2.475 0.495 2.475 0.495 5 1 C4.67 2.32 4.34 3.64 4 5 C3.01 5 2.02 5 1 5 C0.67 3.35 0.34 1.7 0 0 Z " fill="#CC5154" transform="translate(144,187)"/>
<path d="M0 0 C0.33 0.66 0.66 1.32 1 2 C1.66 2 2.32 2 3 2 C3 4.97 3 7.94 3 11 C0.43383368 7.15075052 0.44902324 4.5650696 0 0 Z " fill="#CC5154" transform="translate(147,180)"/>
<path d="M0 0 C0.99 0.33 1.98 0.66 3 1 C2.67 2.65 2.34 4.3 2 6 C0.68 6.33 -0.64 6.66 -2 7 C-1.34 4.69 -0.68 2.38 0 0 Z " fill="#CC5154" transform="translate(250,457)"/>
<path d="M0 0 C1.65 0 3.3 0 5 0 C4.79375 0.61875 4.5875 1.2375 4.375 1.875 C4.25125 2.57625 4.1275 3.2775 4 4 C4.66 4.66 5.32 5.32 6 6 C5.34 6.66 4.68 7.32 4 8 C2.68 5.36 1.36 2.72 0 0 Z " fill="#CC5154" transform="translate(120,386)"/>
<path d="M0 0 C0.99 0 1.98 0 3 0 C4.75 2.375 4.75 2.375 6 5 C5.67 5.66 5.34 6.32 5 7 C3.29115995 5.37660195 1.62553283 3.70680947 0 2 C0 1.34 0 0.68 0 0 Z " fill="#CC5154" transform="translate(126,357)"/>
<path d="M0 0 C0.33 0 0.66 0 1 0 C1 2.31 1 4.62 1 7 C-0.98 7.99 -0.98 7.99 -3 9 C-2.01 6.03 -1.02 3.06 0 0 Z " fill="#CC5154" transform="translate(203,299)"/>
<path d="M0 0 C2.12508244 3.18762365 2.5020163 5.26512223 3 9 C2.01 9 1.02 9 0 9 C0 6.03 0 3.06 0 0 Z " fill="#CC5154" transform="translate(353,263)"/>
<path d="M0 0 C0.99 0 1.98 0 3 0 C1.25 5.75 1.25 5.75 -1 8 C-1.125 2.25 -1.125 2.25 0 0 Z " fill="#CC5154" transform="translate(194,230)"/>
<path d="M0 0 C0.99 0 1.98 0 3 0 C1.25 5.75 1.25 5.75 -1 8 C-1.93065133 5.39417629 -2.14917407 4.35801776 -1.0625 1.75 C-0.711875 1.1725 -0.36125 0.595 0 0 Z " fill="#CC5154" transform="translate(212,192)"/>
<path d="M0 0 C0.99 0 1.98 0 3 0 C4.35439668 2.70879335 4.06501451 5.00933268 4 8 C1.84622436 5.37801226 0.59927826 3.35595828 0 0 Z " fill="#CC5154" transform="translate(172,398)"/>
<path d="M0 0 C0.66 0.33 1.32 0.66 2 1 C1.25 6.75 1.25 6.75 -1 9 C-0.67 6.03 -0.34 3.06 0 0 Z " fill="#CC5154" transform="translate(195,363)"/>
<path d="M0 0 C0.66 0 1.32 0 2 0 C2.33 0.99 2.66 1.98 3 3 C2.67 3.66 2.34 4.32 2 5 C2.66 5.33 3.32 5.66 4 6 C4 6.66 4 7.32 4 8 C3.01 7.67 2.02 7.34 1 7 C0.67 4.69 0.34 2.38 0 0 Z " fill="#CC5154" transform="translate(160,289)"/>
<path d="M0 0 C2.50037734 2.17424117 3.43628586 3.73045798 4 7 C3.34 7 2.68 7 2 7 C2 6.34 2 5.68 2 5 C1.01 4.67 0.02 4.34 -1 4 C-0.67 2.68 -0.34 1.36 0 0 Z " fill="#CC5154" transform="translate(280,188)"/>
</svg>
